<svg width="441" height="127" viewBox="0 0 441 127" fill="none" xmlns="http://www.w3.org/2000/svg">
<path d="M64.7548 21.7242C69.795 20.8569 78.9591 20.6275 85.8829 21.1885C97.6942 22.1067 107.877 24.4785 118.466 28.7122C120.783 29.6302 124.703 31.4412 125.11 31.7981C125.313 31.9512 125.212 32.9713 124.779 35.2665C122.666 46.9473 119.433 57.71 115.029 67.733C113.757 70.6659 109.811 78.5719 109.175 79.4645C108.946 79.8216 108.691 80.2299 108.64 80.3573C108.335 81.1225 105.026 86.2997 101.971 90.7373C98.9926 95.0985 97.5162 96.9604 92.476 102.622C89.3959 106.091 82.4717 112.926 81.0971 113.844C80.7917 114.073 79.748 114.94 78.7552 115.808C76.8715 117.465 72.3914 120.908 70.4823 122.184C69.8459 122.617 69.2093 123.076 69.0311 123.229C68.8527 123.408 67.5547 124.249 66.1294 125.116L63.5584 126.723L62.7437 126.29C61.522 125.627 56.4061 121.699 56.4053 121.419C56.4053 121.291 57.1435 120.653 58.0344 120.041C62.8711 116.7 67.6058 112.671 72.4932 107.774C76.5152 103.719 80.5626 99.0515 82.3699 96.3481C82.7263 95.8379 83.6936 94.4864 84.4827 93.3643C87.3337 89.4111 91.7376 81.658 94.3595 75.8942C99.1706 65.4376 102.734 53.4763 103.116 46.5647L103.193 45.417L101.156 44.703C95.1232 42.5606 84.8392 41.2855 79.01 41.9487C77.6099 42.1272 75.3951 42.3567 74.0715 42.4842C69.7948 42.9433 62.5402 44.9582 57.0162 47.2534C55.8708 47.738 54.7509 48.0694 54.5725 47.993C53.7071 47.6614 48.6669 39.7041 46.6559 35.4706C45.2048 32.3847 43.3975 27.1819 43.7029 26.9014C44.2888 26.3657 53.1725 23.8155 56.9906 23.1015C58.5943 22.7954 60.0965 22.4892 60.3 22.4127C60.5038 22.3361 61.0891 22.2342 61.5727 22.1833C62.0564 22.1578 63.5075 21.9281 64.7548 21.7242ZM7.50498 12.6448C7.68317 12.6448 7.83588 13.5374 7.93772 14.9911C8.1668 18.1025 8.9305 23.2543 9.74507 27.0543C14.1998 47.6359 23.8476 65.9222 38.1537 80.8164C42.6593 85.5092 49.8378 91.7064 50.7542 91.7064C50.9581 91.7062 52.0525 90.7627 53.2232 89.5897C62.2344 80.6379 68.3949 69.6968 71.2459 57.4805C72.0096 54.2416 72.7732 49.8293 72.7732 48.554C72.7732 47.9675 72.926 47.8655 73.9951 47.6103C77.5079 46.7943 83.6172 46.6159 88.6321 47.2025C91.8647 47.585 95.403 48.248 95.7341 48.5796C95.9887 48.809 94.0288 56.8427 92.8577 60.3368C91.3813 64.8255 88.1739 72.5787 85.9338 77.0418C83.6938 81.5816 78.6025 89.7936 75.8533 93.3386C75.1915 94.1803 74.2242 95.4557 73.6896 96.1697C70.9403 99.8169 62.2602 108.513 59.0781 110.834C58.5181 111.242 57.9835 111.676 57.907 111.829C57.7286 112.11 53.427 115.4 51.5941 116.649L50.3977 117.465L47.5723 115.221C36.7791 106.524 26.6477 94.818 18.7819 81.8876C16.1091 77.4753 11.5015 68.243 9.69418 63.6268C5.51949 53.0427 2.10849 40.3929 0.988442 31.5176C0.07204 24.045 -0.182491 19.9643 0.122976 17.3374L0.275672 16.0368L3.76308 14.3536C5.67195 13.4356 7.35179 12.6705 7.50498 12.6448ZM57.8817 0.0459644C59.9183 -0.107055 71.8823 0.147981 74.9369 0.42852C86.7484 1.44867 100.774 4.68765 111.593 8.89576C117.04 11.0126 126.23 15.3481 126.637 15.9858C126.866 16.3938 126.714 21.061 126.357 24.0705C126.153 25.9577 126.485 25.9322 122.666 24.2491C116.124 21.3415 107.902 18.7402 99.6544 16.9805C96.676 16.3173 96.5487 16.2919 95.2759 16.1133C94.7159 16.0113 93.6468 15.8327 92.8831 15.7052C90.4394 15.2717 84.0756 14.6852 80.2064 14.5321C74.2497 14.2771 64.8821 15.0932 57.8817 16.4449C51.8232 17.6436 43.1175 20.2195 37.9755 22.3872C35.7607 23.3054 35.7607 23.2798 36.8553 27.2075C40.2155 39.1177 47.8776 50.5689 58.2635 59.1892C60.1216 60.7193 61.9798 62.2749 62.3873 62.632L63.1255 63.2699L62.2093 65.5651C60.58 69.6458 57.7035 74.5678 54.3178 79.082C53.147 80.6123 51.8741 82.219 51.4415 82.6017L50.6777 83.3158L47.2665 80.1277C45.383 78.3935 43.6775 76.7357 43.4738 76.4552C43.27 76.1745 41.7936 74.4148 40.1901 72.5531C30.7714 61.6376 23.9747 49.6763 19.2909 35.8788C16.5417 27.743 14.9381 19.8113 14.5562 12.5172L14.4035 9.71188L17.3055 8.6662C20.3857 7.54403 29.2952 4.8151 32.0444 4.12651C40.5974 2.06071 49.176 0.709061 57.8817 0.0459644Z" fill="#002D48"/>
<path d="M406.796 104.305C402.432 104.305 398.585 103.551 395.253 102.044C392 100.458 389.461 98.3161 387.636 95.6192C385.812 92.843 384.899 89.5909 384.899 85.8628C384.899 82.3728 385.653 79.2396 387.16 76.4634C388.747 73.6872 391.167 71.3473 394.42 69.4436C397.672 67.5399 401.758 66.1915 406.677 65.3983L429.049 61.7099V72.2991L409.295 75.7495C405.725 76.3841 403.107 77.5342 401.441 79.2C399.775 80.7864 398.942 82.8487 398.942 85.3869C398.942 87.8458 399.854 89.8685 401.679 91.4549C403.583 92.962 406.002 93.7155 408.938 93.7155C412.587 93.7155 415.76 92.9223 418.458 91.3359C421.234 89.7495 423.376 87.6475 424.884 85.03C426.391 82.3331 427.145 79.3586 427.145 76.1065V59.5683C427.145 56.3955 425.955 53.8176 423.575 51.8346C421.274 49.7722 418.18 48.7411 414.293 48.7411C410.723 48.7411 407.589 49.6929 404.892 51.5966C402.274 53.421 400.33 55.8006 399.061 58.7354L387.874 53.1433C389.064 49.9705 391.008 47.1944 393.705 44.8148C396.403 42.3558 399.537 40.4522 403.107 39.1037C406.756 37.7553 410.604 37.0811 414.65 37.0811C419.727 37.0811 424.209 38.0329 428.097 39.9366C432.063 41.8403 435.118 44.4975 437.26 47.9082C439.481 51.2397 440.592 55.1263 440.592 59.5683V102.877H427.74V91.2169L430.477 91.5739C428.969 94.1914 427.026 96.4521 424.646 98.3557C422.345 100.259 419.687 101.727 416.673 102.758C413.737 103.789 410.445 104.305 406.796 104.305Z" fill="#002D48"/>
<path d="M322.549 102.877V14.7119H335.996V51.1207L333.854 49.455C335.441 45.4096 337.979 42.3558 341.47 40.2935C344.961 38.1519 349.007 37.081 353.608 37.081C358.368 37.081 362.573 38.1122 366.222 40.1745C369.872 42.2368 372.728 45.0924 374.79 48.7411C376.853 52.3898 377.884 56.5541 377.884 61.234V102.877H364.556V64.9224C364.556 61.6702 363.922 58.9337 362.652 56.7127C361.462 54.4125 359.796 52.6674 357.654 51.4776C355.512 50.2085 353.053 49.5739 350.276 49.5739C347.579 49.5739 345.119 50.2085 342.898 51.4776C340.756 52.6674 339.05 54.4125 337.781 56.7127C336.591 59.013 335.996 61.7496 335.996 64.9224V102.877H322.549Z" fill="#002D48"/>
<path d="M247.588 126.673V38.5088H260.44V51.8346L258.893 48.7411C261.273 45.0924 264.446 42.2369 268.413 40.1745C272.38 38.1122 276.902 37.0811 281.979 37.0811C288.088 37.0811 293.562 38.5485 298.401 41.4833C303.32 44.4182 307.168 48.4238 309.944 53.5003C312.8 58.5768 314.228 64.2878 314.228 70.6334C314.228 76.979 312.8 82.69 309.944 87.7665C307.168 92.843 303.36 96.8883 298.52 99.9025C293.681 102.837 288.167 104.305 281.979 104.305C276.981 104.305 272.419 103.274 268.294 101.211C264.248 99.1489 261.114 96.1744 258.893 92.2878L261.035 89.7892V126.673H247.588ZM280.67 91.8118C284.478 91.8118 287.85 90.8997 290.785 89.0753C293.721 87.2509 296.021 84.7524 297.687 81.5796C299.433 78.3274 300.305 74.6787 300.305 70.6334C300.305 66.5881 299.433 62.979 297.687 59.8062C296.021 56.6334 293.721 54.1348 290.785 52.3105C287.85 50.4861 284.478 49.574 280.67 49.574C276.941 49.574 273.57 50.4861 270.555 52.3105C267.62 54.1348 265.279 56.6334 263.534 59.8062C261.868 62.979 261.035 66.5881 261.035 70.6334C261.035 74.6787 261.868 78.3274 263.534 81.5796C265.279 84.7524 267.62 87.2509 270.555 89.0753C273.57 90.8997 276.941 91.8118 280.67 91.8118Z" fill="#002D48"/>
<path d="M223.179 102.877V14.7119H236.626V102.877H223.179Z" fill="#002D48"/>
<path d="M139 102.877L170.178 14.2363H187.552L218.73 102.877H203.736L196.954 83.007H160.896L153.994 102.877H139ZM164.942 70.5141H192.669L176.961 24.1119H180.888L164.942 70.5141Z" fill="#002D48"/>
</svg>
