<svg width="348" height="70" viewBox="0 0 348 70" fill="none" xmlns="http://www.w3.org/2000/svg">
<path d="M35.0475 34.4794C35.0475 37.1795 32.8554 39.3683 30.1512 39.3683C27.447 39.3683 25.2548 37.1795 25.2548 34.4794C25.2548 31.7794 27.447 29.5906 30.1512 29.5906C32.8554 29.5906 35.0475 31.7794 35.0475 34.4794Z" fill="black"/>
<path d="M33.5013 18.6549C33.5013 20.4313 32.0591 21.8713 30.28 21.8713C28.5009 21.8713 27.0587 20.4313 27.0587 18.6549C27.0587 16.8786 28.5009 15.4386 30.28 15.4386C32.0591 15.4386 33.5013 16.8786 33.5013 18.6549Z" fill="black"/>
<path d="M32.9859 2.70175C32.9859 4.19388 31.7745 5.40349 30.28 5.40349C28.7856 5.40349 27.5742 4.19388 27.5742 2.70175C27.5742 1.20961 28.7856 0 30.28 0C31.7745 0 32.9859 1.20961 32.9859 2.70175Z" fill="black"/>
<path d="M17.7814 11.4503C17.7814 12.9424 16.5699 14.152 15.0755 14.152C13.5811 14.152 12.3696 12.9424 12.3696 11.4503C12.3696 9.95813 13.5811 8.74851 15.0755 8.74851C16.5699 8.74851 17.7814 9.95813 17.7814 11.4503Z" fill="black"/>
<path d="M5.41176 18.6549C5.41176 20.1471 4.2003 21.3567 2.70588 21.3567C1.21146 21.3567 0 20.1471 0 18.6549C0 17.1628 1.21146 15.9532 2.70588 15.9532C4.2003 15.9532 5.41176 17.1628 5.41176 18.6549Z" fill="black"/>
<path d="M5.41176 34.6081C5.41176 36.1002 4.2003 37.3098 2.70588 37.3098C1.21146 37.3098 0 36.1002 0 34.6081C0 33.116 1.21146 31.9063 2.70588 31.9063C4.2003 31.9063 5.41176 33.116 5.41176 34.6081Z" fill="black"/>
<path d="M5.41176 50.304C5.41176 51.7961 4.2003 53.0057 2.70588 53.0057C1.21146 53.0057 0 51.7961 0 50.304C0 48.8118 1.21146 47.6022 2.70588 47.6022C4.2003 47.6022 5.41176 48.8118 5.41176 50.304Z" fill="black"/>
<path d="M32.9859 66.5144C32.9859 68.0066 31.7745 69.2162 30.28 69.2162C28.7856 69.2162 27.5742 68.0066 27.5742 66.5144C27.5742 65.0223 28.7856 63.8127 30.28 63.8127C31.7745 63.8127 32.9859 65.0223 32.9859 66.5144Z" fill="black"/>
<path d="M60.5601 50.304C60.5601 51.7961 59.3486 53.0057 57.8542 53.0057C56.3598 53.0057 55.1483 51.7961 55.1483 50.304C55.1483 48.8118 56.3598 47.6022 57.8542 47.6022C59.3486 47.6022 60.5601 48.8118 60.5601 50.304Z" fill="black"/>
<path d="M60.5601 18.6549C60.5601 20.1471 59.3486 21.3567 57.8542 21.3567C56.3598 21.3567 55.1483 20.1471 55.1483 18.6549C55.1483 17.1628 56.3598 15.9532 57.8542 15.9532C59.3486 15.9532 60.5601 17.1628 60.5601 18.6549Z" fill="black"/>
<path d="M48.1903 11.7076C48.1903 13.1997 46.9789 14.4093 45.4844 14.4093C43.99 14.4093 42.7786 13.1997 42.7786 11.7076C42.7786 10.2154 43.99 9.00581 45.4844 9.00581C46.9789 9.00581 48.1903 10.2154 48.1903 11.7076Z" fill="black"/>
<path d="M60.5601 34.6081C60.5601 36.1002 59.3486 37.3098 57.8542 37.3098C56.3598 37.3098 55.1483 36.1002 55.1483 34.6081C55.1483 33.116 56.3598 31.9063 57.8542 31.9063C59.3486 31.9063 60.5601 33.116 60.5601 34.6081Z" fill="black"/>
<path d="M18.0392 57.7659C18.0392 59.2581 16.8277 60.4677 15.3333 60.4677C13.8389 60.4677 12.6274 59.2581 12.6274 57.7659C12.6274 56.2738 13.8389 55.0642 15.3333 55.0642C16.8277 55.0642 18.0392 56.2738 18.0392 57.7659Z" fill="black"/>
<path d="M48.1903 57.7659C48.1903 59.2581 46.9789 60.4677 45.4844 60.4677C43.99 60.4677 42.7786 59.2581 42.7786 57.7659C42.7786 56.2738 43.99 55.0642 45.4844 55.0642C46.9789 55.0642 48.1903 56.2738 48.1903 57.7659Z" fill="black"/>
<path d="M33.5013 50.304C33.5013 52.0803 32.0591 53.5203 30.28 53.5203C28.5009 53.5203 27.0587 52.0803 27.0587 50.304C27.0587 48.5276 28.5009 47.0876 30.28 47.0876C32.0591 47.0876 33.5013 48.5276 33.5013 50.304Z" fill="black"/>
<path d="M48.7058 42.5847C48.7058 44.361 47.2636 45.801 45.4846 45.801C43.7055 45.801 42.2633 44.361 42.2633 42.5847C42.2633 40.8083 43.7055 39.3683 45.4846 39.3683C47.2636 39.3683 48.7058 40.8083 48.7058 42.5847Z" fill="black"/>
<path d="M48.7058 26.8888C48.7058 28.6652 47.2636 30.1052 45.4846 30.1052C43.7055 30.1052 42.2633 28.6652 42.2633 26.8888C42.2633 25.1125 43.7055 23.6725 45.4846 23.6725C47.2636 23.6725 48.7058 25.1125 48.7058 26.8888Z" fill="black"/>
<path d="M18.0391 26.8888C18.0391 28.6652 16.5968 30.1052 14.8178 30.1052C13.0387 30.1052 11.5965 28.6652 11.5965 26.8888C11.5965 25.1125 13.0387 23.6725 14.8178 23.6725C16.5968 23.6725 18.0391 25.1125 18.0391 26.8888Z" fill="black"/>
<path d="M18.0391 42.5847C18.0391 44.361 16.5968 45.801 14.8178 45.801C13.0387 45.801 11.5965 44.361 11.5965 42.5847C11.5965 40.8083 13.0387 39.3683 14.8178 39.3683C16.5968 39.3683 18.0391 40.8083 18.0391 42.5847Z" fill="black"/>
<path d="M109.87 51.7955C109.87 53.5756 109.5 53.9443 107.718 53.9443H104.356C102.573 53.9443 102.204 53.5756 102.204 51.7955V38.0858H87.8102V51.7955C87.8102 53.5756 87.4409 53.9443 85.6581 53.9443H82.2966C80.5138 53.9443 80.1445 53.5756 80.1445 51.7955V16.8874C80.1445 15.1073 80.5138 14.7386 82.2966 14.7386H85.6581C87.4409 14.7386 87.8102 15.1073 87.8102 16.8873V31.3129H102.204V16.8873C102.204 15.1073 102.573 14.7386 104.356 14.7386H107.718C109.5 14.7386 109.87 15.1073 109.87 16.8873V51.7955Z" fill="black"/>
<path d="M129.975 53.9443H122.309V14.7386H129.975V53.9443Z" fill="black"/>
<path d="M172.698 53.9443H163.819L156.153 39.4073H150.638V53.9443H142.973V23.1634C142.973 20.2267 143.653 18.0975 145.013 16.776C146.374 15.4177 148.653 14.7386 151.852 14.7386H158.359C162.256 14.7386 165.345 15.9316 167.624 18.3178C169.94 20.6672 171.099 23.659 171.099 27.2932C171.099 29.9363 170.4 32.2306 169.003 34.1762C167.643 36.0851 165.951 37.4067 163.929 38.1409L172.698 53.9443ZM157.863 33.0199C159.481 33.0199 160.804 32.4693 161.834 31.368C162.9 30.23 163.433 28.835 163.433 27.1831C163.433 25.4945 162.918 24.1362 161.889 23.1083C160.896 22.0805 159.554 21.5665 157.863 21.5665H154.058C151.778 21.5665 150.638 22.7229 150.638 25.0356V33.0199H157.863Z" fill="black"/>
<path d="M212.697 53.9443H204.7L202.494 47.1714H189.314L187.163 53.9443H179.167L191.74 18.0424C192.292 16.7943 192.899 15.9316 193.56 15.4544C194.259 14.9772 195.105 14.7386 196.097 14.7386C197.09 14.7386 197.88 14.9588 198.469 15.3994C199.094 15.8399 199.645 16.7209 200.123 18.0424L212.697 53.9443ZM200.73 40.7289L196.097 25.2008L191.244 40.7289H200.73Z" fill="black"/>
<path d="M247.479 21.5665H236.945V53.9443H229.28V21.5665H218.802V14.7386H247.479V21.5665Z" fill="black"/>
<path d="M264.977 53.9443H257.311V14.7386H264.977V53.9443Z" fill="black"/>
<path d="M306.762 32.5243V35.4978C306.762 42.0688 305.512 46.841 303.012 49.8145C300.549 52.7879 296.578 54.2747 291.1 54.2747C285.622 54.2747 281.651 52.7879 279.188 49.8145C276.761 46.841 275.548 42.0137 275.548 35.3326V32.4693C275.548 26.3755 276.78 21.8419 279.243 18.8684C281.743 15.8949 285.677 14.4082 291.045 14.4082C296.449 14.4082 300.42 15.9133 302.957 18.9235C305.494 21.9336 306.762 26.4673 306.762 32.5243ZM299.096 35.3326V33.2952C299.096 29.7711 298.655 26.9628 297.773 24.8704C296.743 22.4476 294.537 21.2362 291.155 21.2362C287.736 21.2362 285.511 22.4476 284.482 24.8704C283.636 26.8527 283.214 29.661 283.214 33.2952V35.3326C283.214 40.0681 283.875 43.2618 285.199 44.9138C285.714 45.6112 286.467 46.2169 287.46 46.7309C288.49 47.2081 289.703 47.4467 291.1 47.4467C292.534 47.4467 293.747 47.2081 294.74 46.7309C295.732 46.2536 296.504 45.6663 297.056 44.9688C297.607 44.2713 298.03 43.3536 298.324 42.2156C298.839 40.4168 299.096 38.1225 299.096 35.3326Z" fill="black"/>
<path d="M347.933 14.7386V49.9797C347.933 51.1911 347.566 52.2373 346.83 53.1183C346.095 53.9626 345.231 54.3848 344.238 54.3848C341.702 54.3848 339.624 52.9164 338.007 49.9797L324.44 28.78V53.9443H316.774V14.7386H324.164L340.268 40.3985V14.7386H347.933Z" fill="black"/>
</svg>
