<svg width="865" height="208" viewBox="0 0 865 208" fill="none" xmlns="http://www.w3.org/2000/svg">
<path d="M810.867 206.335C800.484 206.335 791.218 204.889 783.069 201.998C775.052 199.237 767.954 194.243 761.777 187.014L778.337 167.496C783.2 173.016 788.261 176.762 793.518 178.734C798.775 180.705 804.624 181.691 811.065 181.691C815.796 181.691 820.199 180.508 824.274 178.142C828.348 175.776 831.569 172.425 833.934 168.087C836.432 163.881 837.68 159.084 837.68 153.695V149.161C834.92 153.892 831.108 157.704 826.245 160.596C821.514 163.487 815.008 164.933 806.727 164.933C797.395 164.933 788.918 162.567 781.295 157.835C773.803 153.104 767.888 146.795 763.551 138.909C759.214 130.891 757.045 121.954 757.045 112.096C757.045 102.238 759.214 93.3009 763.551 85.2834C767.888 77.2659 773.803 70.957 781.295 66.3568C788.918 61.6251 797.395 59.2593 806.727 59.2593C815.271 59.2593 821.908 60.7708 826.64 63.7938C831.503 66.8168 835.314 70.8256 838.075 75.8201V61.8223H864.296V155.272C864.296 165.787 861.996 174.856 857.395 182.479C852.927 190.103 846.684 195.952 838.666 200.026C830.648 204.232 821.382 206.335 810.867 206.335ZM811.065 140.683C819.871 140.683 826.705 137.923 831.569 132.403C836.432 126.883 838.863 120.114 838.863 112.096C838.863 104.079 836.432 97.3097 831.569 91.7894C826.705 86.2692 819.871 83.509 811.065 83.509C802.39 83.509 795.621 86.2692 790.758 91.7894C786.026 97.3097 783.66 104.079 783.66 112.096C783.66 117.222 784.712 121.954 786.815 126.291C789.049 130.628 792.204 134.111 796.278 136.74C800.353 139.369 805.282 140.683 811.065 140.683Z" fill="#0D193E"/>
<path d="M695.559 166.905C685.045 166.905 675.647 164.473 667.367 159.61C659.086 154.747 652.58 148.307 647.849 140.289C643.248 132.14 640.948 123.137 640.948 113.279C640.948 103.422 643.248 94.4182 647.849 86.2693C652.58 78.1203 659.086 71.6143 667.367 66.7512C675.647 61.8881 685.045 59.4565 695.559 59.4565C706.206 59.4565 715.603 61.8881 723.752 66.7512C732.033 71.6143 738.473 78.1203 743.073 86.2693C747.805 94.4182 750.171 103.422 750.171 113.279C750.171 123.137 747.805 132.14 743.073 140.289C738.473 148.307 732.033 154.747 723.752 159.61C715.603 164.473 706.206 166.905 695.559 166.905ZM695.559 142.655C701.211 142.655 706.14 141.34 710.346 138.712C714.552 135.952 717.772 132.337 720.006 127.868C722.372 123.4 723.555 118.537 723.555 113.279C723.555 107.89 722.372 102.961 720.006 98.4927C717.772 94.0239 714.552 90.4752 710.346 87.8465C706.14 85.0863 701.211 83.7063 695.559 83.7063C689.908 83.7063 684.979 85.0863 680.773 87.8465C676.567 90.4752 673.281 94.0239 670.915 98.4927C668.681 102.961 667.564 107.89 667.564 113.279C667.564 118.537 668.681 123.4 670.915 127.868C673.281 132.337 676.567 135.952 680.773 138.712C684.979 141.34 689.908 142.655 695.559 142.655Z" fill="#0D193E"/>
<path d="M602.534 164.342L602.534 27.3208H629.15V164.342H602.534Z" fill="#0D193E"/>
<path d="M576.683 164.342C566.562 164.342 558.808 161.844 553.419 156.85C548.03 151.855 545.335 143.772 545.335 132.6V84.495H530.943V61.8225H545.335V38.3613H571.951V61.8225H593.638V84.495H571.951V131.22C571.951 137.529 574.711 140.683 580.231 140.683H591.272V164.342H576.683Z" fill="#0D193E"/>
<path d="M489.378 166.904C472.16 166.904 457.965 160.924 446.793 148.964L464.734 132.6C472.226 141.012 480.243 145.218 488.786 145.218C493.387 145.218 496.87 144.232 499.236 142.26C501.733 140.157 502.981 137.594 502.981 134.571C502.981 132.731 502.521 131.154 501.601 129.84C500.813 128.525 499.038 127.277 496.278 126.094C493.65 124.911 489.641 123.728 484.252 122.545C475.051 120.311 468.217 117.551 463.748 114.265C459.279 110.979 456.322 107.299 454.876 103.224C453.43 99.1498 452.708 94.9439 452.708 90.6065C452.708 81.6689 456.059 74.2429 462.762 68.3283C469.597 62.2823 478.995 59.2593 490.955 59.2593C499.235 59.2593 506.333 60.5079 512.248 63.0052C518.162 65.5024 523.748 70.1684 529.006 77.003L509.685 91.7894C507.187 87.8464 504.361 85.0205 501.207 83.3119C498.184 81.6032 494.964 80.7489 491.547 80.7489C487.866 80.7489 484.778 81.4718 482.28 82.9176C479.915 84.3633 478.732 86.6635 478.732 89.8179C478.732 91.5266 479.52 93.2352 481.097 94.9439C482.675 96.5211 486.486 98.0983 492.532 99.6755C502.521 102.173 510.145 105.13 515.402 108.547C520.659 111.833 524.274 115.579 526.245 119.785C528.217 123.991 529.203 128.657 529.203 133.783C529.203 140.092 527.428 145.743 523.88 150.738C520.462 155.732 515.731 159.676 509.685 162.567C503.77 165.459 497.001 166.904 489.378 166.904Z" fill="#0D193E"/>
<path d="M382.592 166.707C375.231 166.707 368.594 164.999 362.679 161.581C356.765 158.164 352.099 153.301 348.682 146.992C345.264 140.552 343.556 133.06 343.556 124.517V61.8223H370.171V118.011C370.171 126.817 371.946 133.257 375.494 137.332C379.043 141.406 384.103 143.443 390.675 143.443C396.327 143.443 401.256 141.406 405.462 137.332C409.799 133.257 411.968 126.817 411.968 118.011V61.8223H438.583V164.341H412.756V148.964C410.259 154.878 406.579 159.347 401.716 162.37C396.984 165.262 390.609 166.707 382.592 166.707Z" fill="#0D193E"/>
<path d="M287.813 166.51C282.424 166.51 277.298 166.05 272.435 165.13C267.572 164.21 263.76 162.896 261 161.187L271.449 138.515C274.341 140.618 278.547 141.669 284.067 141.669C288.667 141.669 292.479 140.552 295.502 138.318C298.656 135.952 300.233 132.074 300.233 126.686V26.335H327.835V127.671C327.835 136.609 326.06 143.969 322.512 149.752C319.094 155.404 314.363 159.61 308.317 162.37C302.402 165.13 295.567 166.51 287.813 166.51Z" fill="#0D193E"/>
<path d="M0 91.7148C0 142.289 53.3973 183.43 119.005 183.43C133.512 183.43 147.78 181.384 161.408 177.361L164.304 176.509L197.672 207.346V160.416L199.892 158.824C224.11 141.469 238 117.004 238 91.7148C238 41.1461 184.603 0 119.005 0C53.3973 0 0 41.1461 0 91.7148Z" fill="#0D193E"/>
<circle cx="119.218" cy="91.9197" r="75.3591" fill="white"/>
<path d="M172.249 69.6897L107.309 141.367L64.5938 101.551L84.5704 71.9312L105.609 107.853L150.23 43.6738L172.249 69.6897Z" fill="#0D193E"/>
</svg>
