<svg width="614" height="121" viewBox="0 0 614 121" fill="none" xmlns="http://www.w3.org/2000/svg">
<path d="M277.946 44.7715C277.946 44.7715 285.955 33.7976 306.11 33.7976C316.319 33.7976 323.888 36.9581 328.905 43.1912C333.922 49.4244 336.386 57.7645 336.386 68.1238V119.218H314.823V70.6697C314.823 64.8755 313.503 60.5738 310.951 57.7645C308.398 54.9552 304.614 53.5505 299.685 53.5505C296.693 53.5505 294.14 54.1651 291.852 55.4819C289.564 56.711 287.715 58.4668 286.131 60.5738C284.547 62.6808 283.315 65.2267 282.523 68.1238C281.731 71.0209 281.291 74.0936 281.291 77.4296V119.218H259.728V34.1488" fill="black"/>
<path d="M0 0H21.5631V43.193C24.7315 40.1204 30.5403 35.0285 45.5905 34.2384C55.976 33.7994 64.2491 37.5744 69.1778 43.7198C74.1945 49.8651 76.6589 58.2052 76.6589 68.8279V119.834H55.0958V71.4616C55.0958 65.843 53.7756 61.6291 51.1353 58.732C48.4949 55.8349 44.7984 54.4302 40.1337 54.4302C37.1413 54.4302 34.5009 55.0448 32.2126 56.3616C29.9243 57.5907 27.988 59.3465 26.4038 61.5413C24.8195 63.7361 23.5874 66.282 22.7952 69.1791C22.0031 72.0762 21.5631 75.1489 21.5631 78.4849V120.01H0V0Z" fill="black"/>
<path d="M145.572 109.21C145.572 109.21 137.563 120.184 117.408 120.184C107.199 120.184 99.6296 117.023 94.6129 110.79C89.5962 104.557 87.1318 96.217 87.1318 85.8577V34.7634H108.695V83.2239C108.695 89.0181 110.015 93.3199 112.567 96.1292C115.12 98.9385 118.904 100.343 123.833 100.343C126.825 100.343 129.378 99.7286 131.666 98.4117C133.954 97.1827 135.803 95.4268 137.387 93.3199C138.971 91.2129 140.203 88.667 140.995 85.7699C141.787 82.8728 142.227 79.8001 142.227 76.464V34.7634H163.79V119.833" fill="black"/>
<path d="M231.647 66.9829C231.559 65.5783 231.119 63.998 230.239 62.2422C229.446 60.4864 228.214 58.8184 226.63 57.3259C225.046 55.8335 223.022 54.5166 220.733 53.5509C218.357 52.5852 215.54 52.0585 212.284 52.0585C207.707 52.0585 203.659 53.3753 200.138 56.0091C196.618 58.6428 194.153 62.33 192.745 66.9829H231.647ZM251.186 98.2364C247.489 104.821 242.472 110.088 236.135 114.127C229.799 118.165 222.141 120.184 212.988 120.184C206.827 120.184 201.194 119.131 195.914 117.024C190.721 114.917 186.144 111.932 182.36 108.069C178.487 104.206 175.495 99.7289 173.382 94.5492C171.27 89.3695 170.126 83.6631 170.126 77.43C170.126 71.6358 171.182 66.105 173.294 60.9254C175.407 55.7457 178.311 51.1806 182.008 47.3178C185.704 43.455 190.193 40.3823 195.298 38.012C200.402 35.7294 206.035 34.5881 212.196 34.5881C218.709 34.5881 224.43 35.6416 229.446 37.7486C234.463 39.8556 238.688 42.8405 242.12 46.6155C245.553 50.3905 248.105 54.8678 249.865 59.9597C251.626 65.1393 252.506 70.6701 252.506 76.7277V78.6591C252.418 79.3614 252.33 79.8881 252.33 80.5027C252.242 81.0294 252.154 81.644 252.154 82.3463H191.425C191.865 85.5945 192.745 88.4038 194.153 90.7742C195.562 93.1445 197.234 95.0759 199.258 96.6562C201.282 98.2364 203.483 99.3777 205.947 100.08C208.323 100.782 210.788 101.133 213.34 101.133C218.269 101.133 222.405 99.9922 225.574 97.7975C228.83 95.6027 231.383 92.7056 233.231 89.3695L251.186 98.2364Z" fill="black"/>
<path d="M404.334 66.9829C404.246 65.5783 403.806 63.998 402.926 62.2422C402.134 60.4864 400.902 58.8184 399.317 57.3259C397.733 55.8335 395.709 54.5166 393.421 53.5509C391.044 52.5852 388.228 52.0585 384.971 52.0585C380.395 52.0585 376.258 53.3753 372.826 56.0091C369.305 58.6428 366.841 62.33 365.433 66.9829H404.334ZM423.873 98.2364C420.176 104.821 415.16 110.088 408.823 114.127C402.486 118.165 394.829 120.184 385.675 120.184C379.515 120.184 373.882 119.131 368.601 117.024C363.408 114.917 358.832 111.932 355.047 108.069C351.175 104.206 348.182 99.7289 346.07 94.5492C343.958 89.3695 342.901 83.6631 342.901 77.43C342.901 71.6358 343.958 66.105 346.07 60.9254C348.182 55.7457 351.087 51.1806 354.783 47.3178C358.48 43.455 362.968 40.3823 368.073 38.012C373.178 35.7294 378.81 34.5881 384.971 34.5881C391.484 34.5881 397.205 35.6416 402.222 37.7486C407.239 39.8556 411.463 42.8405 414.896 46.6155C418.328 50.3905 420.881 54.8678 422.641 59.9597C424.401 65.1393 425.281 70.6701 425.281 76.7277V78.6591C425.193 79.3614 425.105 79.8881 425.105 80.5027C425.017 81.0294 424.929 81.644 424.929 82.3463H364.2C364.64 85.5945 365.521 88.4038 366.929 90.7742C368.337 93.1445 370.009 95.0759 372.034 96.6562C374.058 98.2364 376.258 99.3777 378.722 100.08C381.099 100.782 383.563 101.133 386.116 101.133C391.044 101.133 395.181 99.9922 398.349 97.7975C401.606 95.6027 404.158 92.7056 406.006 89.3695L423.873 98.2364Z" fill="black"/>
<path d="M465.146 120.184C459.865 120.184 455.201 119.569 451.064 118.252C446.928 116.936 443.407 115.18 440.415 113.073C437.422 110.966 434.87 108.508 432.758 105.698C430.645 102.889 429.061 100.08 428.005 97.2705L447.28 89.0181C449.128 93.1443 451.68 96.3048 454.761 98.324C457.929 100.343 461.362 101.397 465.234 101.397C469.195 101.397 472.275 100.694 474.651 99.2897C476.94 97.885 478.084 96.1292 478.084 94.1978C478.084 92.003 477.116 90.2472 475.18 88.8426C473.243 87.4379 469.899 86.2088 465.234 85.1554L453.881 82.6972C451.328 82.1705 448.776 81.2926 446.047 80.0635C443.319 78.8344 440.943 77.342 438.742 75.4984C436.542 73.6548 434.694 71.3722 433.286 68.7385C431.877 66.1048 431.173 63.0321 431.173 59.5205C431.173 55.5699 432.053 52.0583 433.726 48.9856C435.398 45.9129 437.774 43.2792 440.679 41.1722C443.671 39.0652 447.104 37.3972 451.152 36.2559C455.201 35.1147 459.425 34.5001 464.09 34.5001C471.747 34.5001 478.612 35.9926 484.685 38.9774C490.758 41.9623 495.158 46.7908 497.975 53.3751L479.404 60.9251C477.82 57.7647 475.62 55.4821 472.627 53.9897C469.635 52.585 466.73 51.8827 463.738 51.8827C460.658 51.8827 458.017 52.4972 455.641 53.8141C453.352 55.0431 452.208 56.7112 452.208 58.6426C452.208 60.4862 453.176 61.9786 455.113 63.0321C457.049 64.0856 459.601 65.1391 462.946 66.017L475.268 69.0019C483.453 70.9333 489.614 74.0937 493.574 78.3955C497.623 82.6972 499.559 87.8769 499.559 93.7588C499.559 97.2705 498.767 100.607 497.095 103.767C495.422 106.927 493.134 109.737 490.142 112.195C487.149 114.653 483.541 116.584 479.316 117.989C475.004 119.482 470.339 120.184 465.146 120.184Z" fill="black"/>
<path d="M538.023 120.184C532.742 120.184 528.078 119.569 523.941 118.252C519.805 116.936 516.284 115.18 513.292 113.073C510.299 110.966 507.747 108.508 505.635 105.698C503.522 102.889 501.938 100.08 500.882 97.2705L520.157 89.0181C522.005 93.1443 524.557 96.3048 527.638 98.324C530.806 100.343 534.239 101.397 538.111 101.397C542.072 101.397 545.152 100.694 547.528 99.2897C549.817 97.885 550.961 96.1292 550.961 94.1978C550.961 92.003 549.993 90.2472 548.057 88.8426C546.12 87.4379 542.776 86.2088 538.111 85.1554L526.758 82.6972C524.205 82.1705 521.653 81.2926 518.924 80.0635C516.196 78.8344 513.82 77.342 511.619 75.4984C509.419 73.6548 507.571 71.3722 506.163 68.7385C504.754 66.1048 504.05 63.0321 504.05 59.5205C504.05 55.5699 504.93 52.0583 506.603 48.9856C508.275 45.9129 510.651 43.2792 513.556 41.1722C516.548 39.0652 519.981 37.3972 524.029 36.2559C528.078 35.1147 532.302 34.5001 536.967 34.5001C544.624 34.5001 551.489 35.9926 557.562 38.9774C563.635 41.9623 568.035 46.7908 570.852 53.3751L552.281 60.9251C550.697 57.7647 548.497 55.4821 545.504 53.9897C542.512 52.585 539.607 51.8827 536.615 51.8827C533.534 51.8827 530.894 52.4972 528.518 53.8141C526.229 55.0431 525.085 56.7112 525.085 58.6426C525.085 60.4862 526.053 61.9786 527.99 63.0321C529.926 64.0856 532.478 65.1391 535.823 66.017L548.145 69.0019C556.33 70.9333 562.491 74.0937 566.451 78.3955C570.5 82.6972 572.436 87.8769 572.436 93.7588C572.436 97.2705 571.644 100.607 569.972 103.767C568.299 106.927 566.011 109.737 563.019 112.195C560.026 114.653 556.418 116.584 552.193 117.989C547.792 119.482 543.128 120.184 538.023 120.184Z" fill="black"/>
<path d="M597.886 39.6194C606.708 39.6194 613.861 46.7714 613.861 55.594C613.861 64.4168 606.709 71.5696 597.886 71.5696C589.063 71.5693 581.911 64.4166 581.911 55.594C581.911 46.7716 589.063 39.6196 597.886 39.6194ZM597.886 41.7805C590.257 41.7808 584.073 47.965 584.072 55.594C584.072 63.2232 590.257 69.4082 597.886 69.4084C605.515 69.4084 611.7 63.2234 611.7 55.594C611.7 47.9648 605.515 41.7805 597.886 41.7805ZM598.184 46.5647C599.54 46.5647 600.665 46.8001 601.56 47.2698C602.46 47.7394 603.132 48.3895 603.576 49.22C604.021 50.0448 604.243 50.9987 604.243 52.0813C604.243 53.158 604.018 54.1061 603.568 54.925C603.124 55.7383 602.451 56.371 601.551 56.8235C601.387 56.9064 601.214 56.9784 601.034 57.0461L604.91 64.1604H601.901L598.344 57.4983C598.288 57.4991 598.231 57.5022 598.175 57.5022H594.586V64.1604H591.944V46.5647H598.184ZM594.586 55.217H597.936C598.79 55.217 599.486 55.0942 600.021 54.8479C600.563 54.6016 600.958 54.2432 601.209 53.7737C601.46 53.3041 601.585 52.7398 601.585 52.0813C601.585 51.4169 601.457 50.8406 601.2 50.3538C600.95 49.8671 600.554 49.4952 600.013 49.2375C599.477 48.9741 598.773 48.842 597.901 48.842H594.586V55.217Z" fill="black"/>
</svg>
