<svg width="258" height="54" viewBox="0 0 258 54" fill="none" xmlns="http://www.w3.org/2000/svg">
<path d="M124.868 20.1162C124.868 20.1162 128.466 15.1855 137.521 15.1855C142.108 15.1855 145.508 16.6056 147.762 19.4061C150.016 22.2067 151.123 25.954 151.123 30.6085V53.5654H141.435V31.7524C141.435 29.149 140.842 27.2162 139.696 25.954C138.549 24.6918 136.849 24.0606 134.635 24.0606C133.29 24.0606 132.144 24.3368 131.116 24.9284C130.088 25.4807 129.257 26.2696 128.546 27.2162C127.834 28.1629 127.28 29.3068 126.924 30.6085C126.569 31.9102 126.371 33.2907 126.371 34.7897V53.5654H116.684V15.3433" fill="black"/>
<path d="M0 0H9.68726V19.4069C11.1107 18.0263 13.7203 15.7385 20.4816 15.3835C25.1473 15.1863 28.8641 16.8824 31.0783 19.6435C33.3321 22.4047 34.4392 26.1519 34.4392 30.9248V53.8422H24.7519V32.1081C24.7519 29.5836 24.1588 27.6903 22.9727 26.3886C21.7865 25.0869 20.1258 24.4558 18.0302 24.4558C16.6858 24.4558 15.4996 24.7319 14.4716 25.3236C13.4435 25.8758 12.5737 26.6647 11.862 27.6509C11.1502 28.637 10.5967 29.7809 10.2408 31.0826C9.88496 32.3842 9.68726 33.7648 9.68726 35.2637V53.9211H0V0Z" fill="black"/>
<path d="M65.3989 49.0694C65.3989 49.0694 61.8008 54 52.7462 54C48.1596 54 44.7592 52.58 42.5054 49.7794C40.2516 46.9788 39.1445 43.2315 39.1445 38.577V15.6201H48.8318V37.3937C48.8318 39.9971 49.4249 41.9299 50.5715 43.1921C51.7182 44.4543 53.4184 45.0854 55.6326 45.0854C56.9769 45.0854 58.1236 44.8093 59.1516 44.2177C60.1797 43.6654 61.01 42.8765 61.7217 41.9299C62.4334 40.9832 62.987 39.8393 63.3428 38.5376C63.6987 37.2359 63.8964 35.8553 63.8964 34.3564V15.6201H73.5836V53.8422" fill="black"/>
<path d="M104.068 30.0957C104.029 29.4646 103.831 28.7546 103.435 27.9657C103.08 27.1768 102.526 26.4273 101.814 25.7567C101.103 25.0862 100.193 24.4945 99.1651 24.0606C98.0975 23.6267 96.8323 23.3901 95.3693 23.3901C93.3132 23.3901 91.4944 23.9817 89.9128 25.1651C88.3312 26.3484 87.2241 28.0051 86.5914 30.0957H104.068ZM112.846 44.1381C111.185 47.0964 108.931 49.4631 106.085 51.2776C103.238 53.092 99.7978 53.9993 95.6856 53.9993C92.9178 53.9993 90.3873 53.5259 88.0149 52.5793C85.682 51.6326 83.6259 50.2915 81.9257 48.5559C80.186 46.8203 78.8416 44.8086 77.8927 42.4814C76.9437 40.1541 76.4297 37.5902 76.4297 34.7896C76.4297 32.1863 76.9042 29.7012 77.8531 27.374C78.8021 25.0467 80.1069 22.9956 81.7676 21.26C83.4282 19.5245 85.4448 18.1439 87.7381 17.0789C90.0314 16.0533 92.562 15.5405 95.3298 15.5405C98.2557 15.5405 100.826 16.0139 103.08 16.9605C105.333 17.9072 107.231 19.2483 108.773 20.9445C110.315 22.6406 111.462 24.6523 112.253 26.9401C113.044 29.2673 113.439 31.7524 113.439 34.4741V35.3419C113.399 35.6574 113.36 35.8941 113.36 36.1702C113.32 36.4069 113.281 36.683 113.281 36.9985H85.9983C86.196 38.458 86.5914 39.7202 87.2241 40.7852C87.8567 41.8503 88.608 42.718 89.5174 43.4281C90.4268 44.1381 91.4153 44.6508 92.5224 44.9664C93.59 45.282 94.6971 45.4397 95.8438 45.4397C98.058 45.4397 99.9164 44.927 101.34 43.9408C102.803 42.9547 103.949 41.653 104.78 40.1541L112.846 44.1381Z" fill="black"/>
<path d="M181.646 30.0957C181.606 29.4646 181.408 28.7546 181.013 27.9657C180.657 27.1768 180.104 26.4273 179.392 25.7567C178.68 25.0862 177.771 24.4945 176.743 24.0606C175.675 23.6267 174.41 23.3901 172.947 23.3901C170.891 23.3901 169.032 23.9817 167.49 25.1651C165.909 26.3484 164.802 28.0051 164.169 30.0957H181.646ZM190.424 44.1381C188.763 47.0964 186.509 49.4631 183.662 51.2776C180.815 53.092 177.375 53.9993 173.263 53.9993C170.495 53.9993 167.965 53.5259 165.593 52.5793C163.26 51.6326 161.204 50.2915 159.503 48.5559C157.764 46.8203 156.419 44.8086 155.47 42.4814C154.521 40.1541 154.047 37.5902 154.047 34.7896C154.047 32.1863 154.521 29.7012 155.47 27.374C156.419 25.0467 157.724 22.9956 159.385 21.26C161.045 19.5245 163.062 18.1439 165.355 17.0789C167.649 16.0533 170.179 15.5405 172.947 15.5405C175.873 15.5405 178.443 16.0139 180.697 16.9605C182.951 17.9072 184.848 19.2483 186.39 20.9445C187.933 22.6406 189.079 24.6523 189.87 26.9401C190.661 29.2673 191.056 31.7524 191.056 34.4741V35.3419C191.017 35.6574 190.977 35.8941 190.977 36.1702C190.938 36.4069 190.898 36.683 190.898 36.9985H163.616C163.813 38.458 164.209 39.7202 164.841 40.7852C165.474 41.8503 166.225 42.718 167.135 43.4281C168.044 44.1381 169.032 44.6508 170.14 44.9664C171.207 45.282 172.314 45.4397 173.461 45.4397C175.675 45.4397 177.534 44.927 178.957 43.9408C180.42 42.9547 181.567 41.653 182.397 40.1541L190.424 44.1381Z" fill="black"/>
<path d="M208.967 53.9992C206.595 53.9992 204.499 53.723 202.641 53.1314C200.782 52.5397 199.201 51.7508 197.856 50.8041C196.512 49.8574 195.365 48.753 194.416 47.4908C193.467 46.2285 192.756 44.9663 192.281 43.704L200.94 39.9962C201.771 41.8501 202.917 43.2702 204.301 44.1774C205.725 45.0846 207.267 45.558 209.007 45.558C210.786 45.558 212.17 45.2424 213.237 44.6113C214.265 43.9802 214.779 43.1913 214.779 42.3235C214.779 41.3374 214.344 40.5485 213.475 39.9173C212.605 39.2862 211.102 38.734 209.007 38.2607L203.906 37.1562C202.759 36.9195 201.613 36.5251 200.387 35.9729C199.161 35.4206 198.094 34.7501 197.105 33.9217C196.117 33.0934 195.286 32.0678 194.654 30.8845C194.021 29.7011 193.705 28.3206 193.705 26.7428C193.705 24.9677 194.1 23.3899 194.851 22.0094C195.603 20.6288 196.67 19.4455 197.975 18.4988C199.319 17.5521 200.861 16.8027 202.68 16.2899C204.499 15.7771 206.397 15.501 208.493 15.501C211.933 15.501 215.017 16.1715 217.745 17.5127C220.473 18.8538 222.45 21.0233 223.715 23.9816L215.373 27.3739C214.661 25.9539 213.672 24.9283 212.328 24.2577C210.984 23.6266 209.679 23.3111 208.334 23.3111C206.951 23.3111 205.764 23.5872 204.697 24.1788C203.669 24.7311 203.155 25.4805 203.155 26.3483C203.155 27.1767 203.59 27.8472 204.46 28.3206C205.329 28.7939 206.476 29.2672 207.979 29.6617L213.514 31.0028C217.191 31.8706 219.959 33.2906 221.738 35.2234C223.557 37.1562 224.427 39.4835 224.427 42.1263C224.427 43.704 224.071 45.203 223.32 46.623C222.569 48.043 221.541 49.3052 220.196 50.4097C218.852 51.5141 217.231 52.3819 215.333 53.013C213.396 53.6836 211.3 53.9992 208.967 53.9992Z" fill="black"/>
<path d="M241.709 53.9992C239.337 53.9992 237.241 53.723 235.383 53.1314C233.525 52.5397 231.943 51.7508 230.599 50.8041C229.254 49.8574 228.108 48.753 227.159 47.4908C226.21 46.2285 225.498 44.9663 225.023 43.704L233.683 39.9962C234.513 41.8501 235.66 43.2702 237.044 44.1774C238.467 45.0846 240.009 45.558 241.749 45.558C243.528 45.558 244.912 45.2424 245.98 44.6113C247.008 43.9802 247.522 43.1913 247.522 42.3235C247.522 41.3374 247.087 40.5485 246.217 39.9173C245.347 39.2862 243.844 38.734 241.749 38.2607L236.648 37.1562C235.501 36.9195 234.355 36.5251 233.129 35.9729C231.903 35.4206 230.836 34.7501 229.847 33.9217C228.859 33.0934 228.028 32.0678 227.396 30.8845C226.763 29.7011 226.447 28.3206 226.447 26.7428C226.447 24.9677 226.842 23.3899 227.594 22.0094C228.345 20.6288 229.412 19.4455 230.717 18.4988C232.062 17.5521 233.604 16.8027 235.422 16.2899C237.241 15.7771 239.139 15.501 241.235 15.501C244.675 15.501 247.759 16.1715 250.487 17.5127C253.215 18.8538 255.192 21.0233 256.458 23.9816L248.115 27.3739C247.403 25.9539 246.414 24.9283 245.07 24.2577C243.726 23.6266 242.421 23.3111 241.077 23.3111C239.693 23.3111 238.507 23.5872 237.439 24.1788C236.411 24.7311 235.897 25.4805 235.897 26.3483C235.897 27.1767 236.332 27.8472 237.202 28.3206C238.072 28.7939 239.218 29.2672 240.721 29.6617L246.256 31.0028C249.934 31.8706 252.701 33.2906 254.481 35.2234C256.299 37.1562 257.169 39.4835 257.169 42.1263C257.169 43.704 256.813 45.203 256.062 46.623C255.311 48.043 254.283 49.3052 252.939 50.4097C251.594 51.5141 249.973 52.3819 248.075 53.013C246.098 53.6836 244.003 53.9992 241.709 53.9992Z" fill="black"/>
</svg>
